<?xml version="1.0" encoding="utf-8"?>
<!-- Svg Vector Icons : http://www.onlinewebfonts.com/icon -->
<!DOCTYPE svg PUBLIC "-//W3C//DTD SVG 1.1//EN" "http://www.w3.org/Graphics/SVG/1.1/DTD/svg11.dtd">
<svg version="1.1" xmlns="http://www.w3.org/2000/svg" xmlns:xlink="http://www.w3.org/1999/xlink" x="0px" y="0px" viewBox="0 0 1000 1000" enable-background="new 0 0 1000 1000" xml:space="preserve">
<metadata> Svg Vector Icons : http://www.onlinewebfonts.com/icon </metadata>
<g><g transform="translate(0.000000,512.000000) scale(0.100000,-0.100000)"><path d="M2718.6,4991.3c-5.8-15.3-57.5-59.4-114.9-95.8c-57.5-36.4-109.2-84.3-116.8-103.4c-15.3-51.7,53.6-181.9,124.5-235.6c49.8-36.4,57.5-53.6,57.5-136c0-65.1-13.4-111.1-40.2-151.3c-40.2-55.5-40.2-63.2-17.2-289.2c13.4-128.3,32.6-252.8,46-275.8c32.6-63.2,291.1-249,365.8-262.4c36.4-7.7,67-21.1,67-28.7c0-26.8-65.1-72.8-124.5-86.2c-30.6-7.7-78.5-26.8-103.4-44.1c-40.2-26.8-44.1-38.3-32.6-128.3c13.4-122.6-5.7-155.1-160.9-260.5c-63.2-42.1-147.5-113-185.8-159c-137.9-151.3-197.3-201.1-258.6-214.5c-99.6-21.1-145.6-59.4-233.7-197.3c-44.1-70.9-113-157.1-153.2-189.6c-69-61.3-151.3-82.4-174.3-44c-36.4,59.4-222.2-30.6-398.4-191.5c-114.9-103.4-137.9-168.5-70.9-185.8c28.7-7.7,36.4-21.1,26.8-47.9c-24.9-80.4,13.4-172.4,114.9-281.5c174.3-185.8,201.1-250.9,126.4-317.9c-32.6-30.6-80.4-36.4-331.3-42.1c-388.8-7.7-406-11.5-494.2-90c-49.8-46-93.8-69-130.2-69c-32.6,0-61.3-7.7-67-17.2c-15.3-23,136-227.9,218.3-295c113-95.8,208.8-134.1,300.7-120.7c130.2,17.2,90-63.2-53.6-105.3c-65.1-21.1-86.2-19.1-145.6,9.6c-67,32.6-72.8,32.6-95.8,0c-40.2-55.5-30.6-82.3,86.2-195.4C809,78.6,889.5-11.4,925.9-65.1c36.4-51.7,113-130.2,168.5-176.2c88.1-70.9,113-82.4,191.5-82.4c114.9,0,325.6,67,381.1,118.8c46,44,82.4,143.6,82.4,231.7c0,63.2,34.5,69,46,9.6c26.8-130.2,26.8-185.8-1.9-226c-26.8-38.3-26.8-49.8,13.4-136l44-92l-40.2-113c-65.1-176.2-55.6-427.1,46-1086c40.2-268.1,65.1-363.9,134.1-540.1c46-118.8,84.3-231.7,84.3-252.8s21.1-53.6,47.9-70.9c28.7-19.2,47.9-49.8,47.9-76.6c0-26.8,13.4-78.6,28.7-118.8c17.2-38.3,47.9-151.3,70.9-252.8c42.1-197.3,90-325.6,249-679.9c124.5-272,180-440.5,197.3-584.2c23-203,51.7-287.3,136-402.2c101.5-137.9,208.8-201.1,310.3-182c99.6,19.2,210.7,80.5,224.1,124.5c24.9,76.6,105.3,151.3,178.1,164.7c95.8,17.3,116.8,38.3,130.2,124.5c15.3,93.9,78.5,157.1,201.1,201.1c53.6,19.2,103.4,44.1,111.1,55.5c9.6,9.6,26.8,139.8,38.3,287.3c21.1,252.8,26.8,277.7,101.5,436.7c72.8,153.2,78.5,174.3,57.5,231.8c-32.6,88.1-28.7,107.2,17.2,107.2c36.4,0,38.3,7.7,26.8,63.2c-5.7,32.6-19.2,130.2-28.7,214.5c-7.7,84.3-24.9,183.9-36.4,222.2c-40.2,132.2,36.4,224.1,203,243.3c68.9,7.7,105.3,24.9,153.2,72.8c34.5,36.4,88.1,68.9,116.8,76.6c95.8,21.1,99.6,24.9,99.6,95.8c0,67,1.9,68.9,63.2,59.4c82.4-11.5,164.7,32.6,371.6,199.2c91.9,74.7,212.6,159,264.3,183.9c65.1,32.6,116.8,76.6,160.9,141.7c36.4,53.6,128.3,155.1,204.9,226c116.8,109.2,174.3,145.6,333.2,212.6c264.3,111.1,312.2,168.5,342.8,406c11.5,97.7,13.4,101.5,164.7,208.8c145.6,105.3,153.2,109.2,168.5,69c7.7-23,24.9-47.9,38.3-55.6c42.1-26.8,191.5-17.2,227.9,17.2c19.2,17.2,84.3,36.4,151.3,42.1l116.8,11.5l-38.3,47.9c-23,28.7-44,95.8-51.7,162.8c-11.5,90-26.8,128.3-68.9,172.4c-57.5,61.3-76.6,132.1-103.4,383.1c-11.5,107.3-19.2,120.7-109.2,204.9c-51.7,49.8-90,99.6-84.3,109.2c7.6,9.6,40.2,23,74.7,30.6c116.8,23,128.3,30.6,128.3,78.5c0,42.1-32.6,80.4-124.5,149.4c-38.3,26.8-44.1,101.5-17.3,229.8l11.5,55.5l47.9-61.3c32.5-40.2,63.2-59.4,97.7-59.4c28.7,0,72.8-13.4,95.8-30.6c30.7-21.1,65.1-26.8,107.3-19.2c68.9,13.4,88.1-7.7,88.1-95.8c0-69,57.5-197.3,91.9-206.8c19.2-5.8,168.5-9.6,335.2-9.6c363.9,0,381.2-3.8,373.5-84.3c-3.8-49.8-30.6-78.5-151.3-168.6C7907,434.8,7872.6,377.4,7882.2,249l5.7-84.3l139.8-3.8l137.9-5.7v86.2c0,99.6,19.2,116.8,90,82.4l53.6-24.9l-7.7-256.7c-3.8-164.7-17.2-281.5-34.5-323.7c-34.5-84.3-24.9-91.9,36.4-26.8c93.8,99.6,151.3,241.3,180,446.3c34.5,249,44.1,266.2,149.4,266.2c103.4,0,137.9,34.5,166.6,172.4c11.5,57.5,42.1,151.3,67,208.8c34.5,78.5,46,136,46,245.2v143.6l132.2,137.9c72.8,74.7,145.6,162.8,162.8,197.3c38.3,76.6,111.1,134.1,204.9,162.8c97.7,28.7,134.1,72.8,145.6,174.3c19.2,162.8-36.4,243.2-176.2,266.2c-30.6,5.7-40.2,24.9-47.9,111.1c-11.5,116.8-42.1,139.8-130.2,93.8c-42.1-24.9-49.8-23-76.6,17.2c-40.2,59.4-93.9,51.7-182-26.8c-78.5-70.9-116.8-76.6-254.7-36.4c-36.4,11.5-46,0-74.7-72.8c-51.7-137.9-147.5-214.5-371.6-300.7c-107.2-40.2-208.8-84.3-224.1-97.7c-44.1-36.4-32.6-76.6,42.1-153.2c82.4-84.3,76.6-132.2-21.1-178.1c-109.2-51.7-272-72.8-572.7-76.6c-281.5-1.9-285.4-1.9-319.8,46c-21.1,26.8-46,99.6-57.5,162.8c-23,132.2-76.6,201.1-151.3,201.1c-114.9,0-203-130.2-183.9-272c5.7-46,15.3-122.6,23-172.4l11.5-90l-72.8-13.4c-53.6-9.6-105.3-1.9-189.6,26.8c-65.1,21.1-191.5,44.1-293,49.8c-206.8,13.4-250.9,28.7-455.8,168.5c-160.9,111.1-264.3,143.6-369.6,120.7c-44.1-9.6-101.5,5.7-235.6,63.2c-97.7,42.1-203,80.4-235.6,88.1c-34.5,9.6-120.7,74.7-210.7,160.9c-84.3,80.4-182,162.8-216.4,180c-80.4,42.1-80.4,93.8,5.7,283.5c76.6,170.5,84.3,241.3,28.7,258.6c-55.5,17.2-172.4,160.9-256.6,314.1c-57.5,103.4-97.7,149.4-168.5,195.4c-95.8,61.3-120.7,113-55.5,113c21.1,0,61.3,19.2,88.1,44c67,55.6,90,247.1,40.2,323.7c-17.2,26.8-36.4,91.9-42.1,143.6l-11.5,93.8l78.5,23c78.5,24.9,139.8,86.2,203,212.6c17.2,36.4,57.5,86.2,88.1,111.1c99.6,84.3,59.4,218.3-74.7,252.8c-38.3,11.5-134.1,24.9-210.7,32.6c-141.7,13.4-149.4,17.2-367.7,168.5c-57.5,42.1-114.9,61.3-204.9,72.8c-122.6,13.4-130.2,19.2-256.6,139.8L3266.3,5020h-268.1C2777.9,5020,2728.1,5014.3,2718.6,4991.3z"/></g></g>
</svg>